<svg width="117" height="50" viewBox="0 0 117 50" fill="none" xmlns="http://www.w3.org/2000/svg">
<g opacity="0.6">
<g clip-path="url(#clip0_118_3)">
<path d="M43.2624 0H6.73806C3.01706 0 0.000457764 3.01648 0.000457764 6.7376V43.2622C0.000457764 46.9833 3.01694 49.9998 6.73806 49.9998H24.7517L24.7824 32.1325H20.1405C19.5372 32.1325 19.0476 31.6448 19.0453 31.0415L19.023 25.2822C19.0207 24.6756 19.5118 24.1827 20.1183 24.1827H24.7518V18.6177C24.7518 12.1596 28.696 8.64311 34.4571 8.64311H39.1845C39.7893 8.64311 40.2798 9.13346 40.2798 9.73842V14.5947C40.2798 15.1994 39.7897 15.6897 39.1851 15.69L36.2839 15.6914C33.1509 15.6914 32.5442 17.1802 32.5442 19.3651V24.1828H39.4286C40.0846 24.1828 40.5935 24.7556 40.5162 25.4071L39.8336 31.1664C39.7683 31.7175 39.3009 32.1328 38.746 32.1328H32.5749L32.5442 50H43.2626C46.9836 50 50.0001 46.9835 50.0001 43.2625V6.7376C50 3.01648 46.9835 0 43.2624 0Z" fill="#171717"/>
</g>
</g>
<g opacity="0.6" clip-path="url(#clip1_118_3)">
<path d="M96.4211 21.7883C95.4298 20.4005 93.8041 19.4885 91.9802 19.4885C90.1562 19.4885 88.5305 20.4005 87.5393 21.7883C86.9048 22.7002 86.5083 23.8105 86.5083 25C86.5083 28.0135 88.9667 30.4718 91.9802 30.4718C94.9937 30.4718 97.452 28.0135 97.452 25C97.452 23.8105 97.0555 22.7002 96.4211 21.7883Z" fill="black"/>
<path d="M99.8707 21.8279C100.267 22.6209 100.505 23.8898 100.505 25C100.505 29.6788 96.6987 33.525 91.9802 33.525C87.2617 33.525 83.4552 29.7185 83.4552 25C83.4552 23.8501 83.6931 22.6209 84.0896 21.8279H79.2918V34.5559C79.2918 36.2213 80.7589 37.6883 82.4243 37.6883H101.536C103.201 37.6883 104.669 36.2213 104.669 34.5559V21.8279H99.8707Z" fill="black"/>
<path d="M103.241 13.0254H98.6416V18.299H103.875V13.6994V12.9857L103.241 13.0254Z" fill="black"/>
<path d="M104.431 0.0198364H79.5297C72.6305 0.0198364 67 5.65029 67 12.5496V37.4901C67 44.3497 72.6305 49.9802 79.5297 49.9802H104.47C111.37 49.9802 117 44.3497 117 37.4504V12.5496C116.96 5.65029 111.33 0.0198364 104.431 0.0198364ZM107.444 21.7883V34.5559C107.444 37.8866 104.867 40.4639 101.536 40.4639H82.4243C79.0936 40.4639 76.5163 37.8866 76.5163 34.5559V21.7883V15.4441C76.5163 12.1134 79.0936 9.53609 82.4243 9.53609H101.536C104.867 9.53609 107.444 12.1134 107.444 15.4441V21.7883Z" fill="black"/>
</g>
<defs>
<clipPath id="clip0_118_3">
<rect width="50" height="50" rx="10" fill="white"/>
</clipPath>
<clipPath id="clip1_118_3">
<rect width="50" height="50" fill="white" transform="translate(67)"/>
</clipPath>
</defs>
</svg>
