<svg width="62" height="62" viewBox="0 0 62 62" fill="none" xmlns="http://www.w3.org/2000/svg">
<g opacity="0.6">
<path d="M38.9384 5.16666H23.0886C8.61107 5.16666 5.16669 8.61104 5.16669 23.0616V38.9114C5.16669 53.3888 8.58428 56.8333 23.0616 56.8333H38.9115C53.389 56.8333 56.8334 53.4157 56.8334 38.9383V23.0885C56.8334 8.61104 53.4158 5.16666 38.9384 5.16666ZM46.8767 42.0329H43.1094C41.6832 42.0329 41.2526 40.8758 38.6963 38.3194C36.4626 36.1667 35.5209 35.8975 34.9558 35.8975C34.1754 35.8975 33.96 36.1127 33.96 37.1892V40.5798C33.96 41.4948 33.6641 42.0329 31.2692 42.0329C28.9452 41.8768 26.6915 41.1708 24.6938 39.9731C22.6961 38.7754 21.0115 37.1203 19.7787 35.144C16.852 31.5013 14.8157 27.2259 13.8317 22.6579C13.8317 22.0928 14.0469 21.5815 15.1233 21.5815H18.8906C19.8594 21.5815 20.2093 22.0121 20.586 23.0078C22.4158 28.3897 25.5374 33.072 26.8021 33.072C27.2865 33.072 27.5017 32.8568 27.5017 31.6458V26.1023C27.3402 23.5729 25.9948 23.3575 25.9948 22.4427C26.0125 22.2013 26.1236 21.9764 26.3045 21.8156C26.4854 21.6548 26.7218 21.5708 26.9636 21.5815H32.8838C33.6911 21.5815 33.96 21.9851 33.96 22.9539V30.4349C33.96 31.2422 34.3099 31.5112 34.5521 31.5112C35.0365 31.5112 35.4132 31.2422 36.3012 30.3542C38.2095 28.027 39.7687 25.4344 40.9297 22.6579C41.0482 22.3238 41.2728 22.0377 41.5693 21.8434C41.8657 21.649 42.2176 21.557 42.5713 21.5815H46.3386C47.4688 21.5815 47.711 22.1466 47.4688 22.9539C46.098 26.0237 44.402 28.9377 42.4098 31.6458C42.0062 32.2647 41.8447 32.5876 42.4098 33.3142C42.7865 33.8793 44.1051 34.9825 44.9931 36.032C46.2848 37.3204 47.3573 38.8111 48.1684 40.4453C48.4913 41.4948 47.9531 42.0329 46.8767 42.0329Z" fill="black"/>
</g>
</svg>
