<svg width="99" height="99" viewBox="0 0 99 99" fill="none" xmlns="http://www.w3.org/2000/svg">
<g opacity="0.6">
<path d="M16.0769 30.0674H10.8791C5.68131 30.0674 1.20879 33.9355 1.20879 41.43C1.20879 45.9025 3.38461 49.2872 7.13186 50.9795L0.120875 63.5509C-0.120884 63.9135 0.120875 64.2762 0.483512 64.2762H3.74725C3.98901 64.2762 4.23076 64.1553 4.35164 63.9135L10.7582 51.5839H13.0549V63.9135C13.0549 64.0344 13.1758 64.2762 13.4176 64.2762H16.3187C16.5604 64.2762 16.6813 64.1553 16.6813 63.9135V30.5509C16.5604 30.1883 16.4396 30.0674 16.0769 30.0674ZM13.0549 48.6828H11.1209C2.78021 48.6828 3.38461 32.9685 10.7582 32.9685H13.1758V48.6828H13.0549Z" fill="#171717"/>
<path d="M33.4835 41.43H30.5824C30.3407 41.43 30.2198 41.5509 30.2198 41.7927V50.496H24.9011V41.7927C24.9011 41.5509 24.7802 41.43 24.5385 41.43H21.7582C21.5165 41.43 21.3956 41.5509 21.3956 41.7927V63.9136C21.3956 64.1553 21.5165 64.2762 21.7582 64.2762H24.6593C24.9011 64.2762 25.022 64.1553 25.022 63.9136V53.2762H30.3407V63.9136C30.3407 64.1553 30.4615 64.2762 30.7033 64.2762H33.6044C33.8461 64.2762 33.967 64.1553 33.967 63.9136V41.7927C33.8461 41.5509 33.7253 41.43 33.4835 41.43ZM98.7582 61.2542C98.7582 61.1333 98.6374 61.1333 98.5165 61.1333C97.3077 61.1333 89.9341 64.6388 89.9341 53.0344C89.9341 47.9575 91.8681 40.8256 96.4615 45.0564C96.5824 45.1773 96.7033 45.1773 96.8242 45.1773C96.9451 45.1773 97.0659 45.0564 97.1868 44.8146L98.3956 42.7597C98.5165 42.6388 98.5165 42.5179 98.5165 42.3971C98.5165 42.1553 98.2747 42.0344 98.033 41.9136C90.0549 37.9245 85.9451 45.2982 85.9451 53.8806C85.9451 65.0015 94.044 66.5729 98.6374 63.1883C98.8791 63.0674 98.8791 62.8256 98.8791 62.7048L98.7582 61.2542ZM78.9341 51.7048L84.4945 41.6718C84.6154 41.5509 84.4945 41.3092 84.3736 41.3092H81.5934C80.7472 41.3092 80.5055 41.5509 80.2637 42.1553C80.022 42.7597 75.9121 51.3421 75.4286 51.7048V41.6718C75.4286 41.5509 75.3077 41.3092 75.1868 41.3092H72.1648C72.044 41.3092 71.9231 41.43 71.9231 41.6718V63.9136C71.9231 64.0344 72.044 64.2762 72.1648 64.2762H75.1868C75.4286 64.2762 75.4286 64.1553 75.4286 63.9136V52.43C75.7912 52.6718 80.8681 63.1883 80.989 63.5509C81.2308 64.0344 81.7143 64.2762 82.3187 64.2762H85.3407C85.5824 64.2762 85.5824 64.1553 85.4615 63.9136L78.9341 51.7048ZM52.4615 61.3751H51.8571C51.1319 61.3751 51.011 61.1333 51.011 60.5289V41.6718C51.011 41.43 50.8901 41.3092 50.7692 41.3092H41.4615C41.2198 41.3092 41.0989 41.43 41.0989 41.6718C41.0989 46.7487 41.2198 55.2103 37.8352 61.3751H36.8681C36.6264 61.3751 36.5055 61.496 36.5055 61.7377V68.3861C36.5055 68.6278 36.7472 68.7487 36.8681 68.7487H39.044C39.5275 68.7487 39.7692 68.3861 39.7692 68.0234V64.2762H49.5604V68.3861C49.5604 68.507 49.6813 68.7487 49.9231 68.7487H52.3407C52.5824 68.7487 52.9451 68.507 52.9451 68.0234V61.7377C52.8242 61.496 52.7033 61.3751 52.4615 61.3751ZM47.3846 61.3751H40.6154C42.5494 58.2322 44.3626 53.1553 44.3626 44.2103H47.3846V61.3751ZM61.8901 40.8256C56.9341 40.8256 54.6374 46.9905 54.6374 53.7597C54.6374 64.8806 62.3736 66.5729 67.6923 63.3092C67.9341 63.1883 67.9341 63.0674 67.9341 62.9465L67.5714 61.3751C67.5714 61.2542 67.4505 61.1333 67.2088 61.1333C65.2747 61.1333 58.5055 64.5179 58.5055 53.5179C60.9231 53.7597 60.9231 53.7597 68.1758 53.7597C68.0549 48.1993 67.4505 40.8256 61.8901 40.8256ZM58.6264 50.9795C58.6264 42.1553 64.4286 40.463 64.4286 50.7377C61.8901 50.7377 60.8022 50.7377 58.6264 50.9795Z" fill="black"/>
</g>
</svg>
